<svg width="167" height="200" viewBox="0 0 167 200" fill="none"
    xmlns="http://www.w3.org/2000/svg">
    <path fill-rule="evenodd" clip-rule="evenodd" d="M81.6581 62.471L81.2779 69.6487C81.2389 70.4673 80.8928 70.6233 80.2396 70.1165C67.4734 60.1613 51.2413 58.3778 36.0476 59.2696C35.7119 59.2916 35.3932 59.4287 35.1453 59.6574C34.8974 59.8861 34.7357 60.1924 34.6875 60.5245C34.6393 60.8566 34.7076 61.194 34.8809 61.4794C35.0541 61.7649 35.3216 61.981 35.6381 62.0909C45.6113 65.6432 59.2257 67.836 66.6252 72.4262C83.2667 82.7615 80.6198 110.259 77.8121 126.719C76.2328 136.002 44.0758 145.08 38.0071 146.06C29.8082 147.366 21.9847 146.537 14.5365 143.574C4.25617 139.496 5.17745 125.871 10.6466 118.343C22.5501 101.926 50.3785 91.4157 54.9557 73.7419C55.2677 72.5139 54.7948 71.8658 53.5372 71.7976C40.4638 71.0521 26.4107 67.5729 18.6018 56.1558C18.4013 55.861 18.2621 55.5289 18.1925 55.1793C18.1229 54.8297 18.1243 54.4697 18.1966 54.1206C18.2689 53.7715 18.4106 53.4405 18.6133 53.1473C18.8161 52.854 19.0757 52.6045 19.3768 52.4135C21.5021 51.0588 23.915 49.6993 26.6154 48.3349C38.2167 42.4583 47.8974 34.3158 55.6576 23.9074C55.9598 23.5078 56.0963 23.0546 56.0671 22.5479C55.4383 13.6013 55.0142 5.66348 57.1053 1.20484C57.246 0.907528 57.4545 0.647314 57.7139 0.44506C57.9734 0.242806 58.2766 0.104139 58.5994 0.0401821C58.9221 -0.0237744 59.2553 -0.0112424 59.5723 0.0767724C59.8894 0.164787 60.1813 0.325838 60.4249 0.547007C66.1719 5.79505 70.6905 10.9846 77.0225 15.9841C109.062 41.3326 125.411 77.952 98.7822 115.639C98.7462 115.688 98.6941 115.723 98.6349 115.738C98.5757 115.754 98.5131 115.748 98.4578 115.722C98.4024 115.696 98.3578 115.651 98.3316 115.596C98.3055 115.541 98.2993 115.478 98.3142 115.419C100.946 106.258 101.57 96.9951 100.186 87.6295C100.147 87.3734 100.035 87.1339 99.8638 86.9392C99.6928 86.7444 99.4697 86.6026 99.2208 86.5304C98.9719 86.4582 98.7075 86.4587 98.4588 86.5316C98.2101 86.6046 97.9874 86.7471 97.817 86.9424L94.8923 90.3631C94.4536 90.8699 94.2148 90.7919 94.1758 90.1292C93.4885 79.3846 91.5289 69.0786 82.6086 62.0471C82.5248 61.9797 82.424 61.9367 82.3172 61.9229C82.2105 61.9091 82.1021 61.925 82.0039 61.9688C81.9056 62.0127 81.8213 62.0827 81.7603 62.1713C81.6993 62.2599 81.664 62.3636 81.6581 62.471ZM56.826 46.2382C56.827 46.2571 56.8275 46.2761 56.8275 46.295C56.8297 47.5707 54.7954 48.6083 52.2837 48.6127C52.2179 48.6128 52.1522 48.6122 52.0866 48.6108C51.0284 48.5898 50.0636 48.3849 49.3125 48.0572C49.2279 48.0204 49.1458 47.9818 49.0666 47.9418C48.9675 47.8917 48.8732 47.8394 48.784 47.785C48.15 47.3994 47.7597 46.9068 47.7332 46.3677C47.7322 46.3487 47.7317 46.3298 47.7317 46.3108C47.7295 45.0352 49.7638 43.9976 52.2755 43.9932C52.3414 43.9931 52.4072 43.9937 52.473 43.995C53.531 44.0162 54.4957 44.221 55.2467 44.5486C55.3172 44.5794 55.3859 44.6112 55.4527 44.6442C55.4661 44.6508 55.4794 44.6574 55.4926 44.6641C55.519 44.6775 55.5451 44.691 55.5708 44.7047C55.6414 44.7421 55.7093 44.7808 55.7746 44.8205C56.4089 45.2061 56.7994 45.6989 56.826 46.2382Z" fill="#FFFFFF"/>
    <path fill-rule="evenodd" clip-rule="evenodd" d="M1.77018 143.808C18.4409 168.791 53.0546 155.708 73.2496 144.583C89.9057 135.403 103.198 127.655 118.217 124.614C148.283 118.504 169.691 139.876 166.109 169.274C164.929 179.039 161.239 188.088 155.039 196.42C154.903 196.594 154.739 196.738 154.556 196.844C152.674 197.877 151.895 197.517 152.216 195.763C155.156 179.638 140.035 176.568 127.971 177.884C111.958 179.624 99.9959 185.588 80.4444 193.219C68.9211 197.721 54.2391 201.201 42.2479 199.607C13.9515 195.85 0.541814 170.78 0.000746162 144.379C-0.00753527 144.168 0.0533043 143.961 0.173978 143.788C0.294652 143.615 0.468529 143.487 0.669067 143.422C0.869604 143.358 1.08578 143.36 1.2846 143.43C1.48343 143.5 1.65396 143.633 1.77018 143.808ZM84.8606 161.497C103.71 147.214 127.21 137.581 148.707 151.892C148.786 151.933 148.846 152.004 148.874 152.089C148.901 152.174 148.894 152.266 148.853 152.346C148.812 152.425 148.742 152.485 148.656 152.513C148.571 152.54 148.479 152.533 148.4 152.492C126.494 144.569 106.591 152.477 85.3578 162.33C85.2473 162.396 85.1151 162.415 84.9903 162.384C84.8655 162.352 84.7584 162.272 84.6925 162.162C84.6265 162.051 84.6072 161.919 84.6388 161.795C84.6703 161.67 84.7501 161.563 84.8606 161.497Z" fill="#FFFFFF"/>
</svg>
